<svg width="20" height="20" version="1.1" viewBox="0 0 20 20" xmlns="http://www.w3.org/2000/svg" xmlns:xlink="http://www.w3.org/1999/xlink"><defs><linearGradient id="linearGradient2516" x1="16.074" x2="2.9566" y1="16.541" y2="2.4048" gradientTransform="translate(.84817 .21204)" gradientUnits="userSpaceOnUse"><stop stop-color="#da4526" offset="0"/><stop stop-color="#7200c7" offset="1"/></linearGradient></defs><style type="text/css">.favIconFrame{fill:#FFFFFF;}
	.favIconNumber{fill:#0C0C91;}
	
	@media (prefers-color-scheme: dark) {
      .favIconFrame{fill:#0C0C91; border: 1px solid #000000}
	  .favIconNumber{fill:#FFFFFF;}
    }</style><rect width="20" height="20" ry="2.4031" stroke-width="3.7795" style="paint-order:stroke fill markers"/><g fill="url(#linearGradient2516)" stroke-width=".59797" aria-label="K"><path d="m17.375 17.448q0 .5022-.43213.65403-.35037.11679-1.8453.11679-1.4365 0-2.1022-.11679-.31534-.05839-.42045-.11679-.09343-.07007-.24526-.33869-.85257-1.565-1.6935-3.13-1.3898-2.5227-1.6584-2.7796-1.2613.45548-1.2613.65403 0 .87593.070075 2.6512.070075 1.7635.070075 2.6512 0 .36205-.31534.40877-.60731.09343-2.1957.09343-1.5183 0-2.0088-.09343-.33869-.07007-.33869-.36205 0-1.2613.11679-3.8074.12847-2.546.12847-3.8191 0-1.3548-.11679-4.0643-.11679-2.7212-.11679-4.076 0-.25694.24526-.25694.36205 0 1.0862.035037.73578.035037 1.0978.035037.37373 0 1.1095-.035037t1.0978-.035037q.19854 0 .19854.21022 0 .86425-.093433 2.6161-.081754 1.7402-.081754 2.6044 0 1.0044.54892 1.0044 1.3898 0 2.1606-.75914.57228-.5606 1.1562-2.0438.37373-1.1329 1.2263-3.3402.12847-.29198.52556-.29198.30366 0 .91097.035037.61899.035037.92265.035037.31534 0 .93433-.023358.63067-.023358.93433-.023358.2803 0 .2803.26862 0 .38541-.49052 1.8803-1.4482 4.4147-3.3285 5.5125-.38541.2219-.38541.36205 0-.011679 2.149 3.5037 2.1606 3.5154 2.1606 4.1811z"/></g></svg>
